<svg width="245" height="136" viewBox="0 0 245 136" fill="none" xmlns="http://www.w3.org/2000/svg">
<path d="M139.965 22.2363C114.562 14.9499 40.1235 27.5534 18.0678 42.9138C20.8247 43.5046 22.794 44.0954 24.9602 44.2923C28.8987 44.8831 32.8372 45.277 36.7758 46.0647C40.1235 46.8524 41.6989 48.8217 40.9112 51.1849C40.1235 54.1388 37.9573 54.3357 35.3973 54.1388C25.354 53.1541 15.1139 51.9726 4.87369 50.5941C0.147462 50.0033 -1.23102 46.6555 1.13209 42.323C2.11673 40.5507 3.69214 38.9753 4.67677 37.2029C11.7661 25.9779 18.6585 14.9499 25.551 3.92187C26.1417 2.93722 26.5356 1.75565 27.3233 1.36179C28.8987 0.574071 31.0649 -0.410574 32.2465 0.180213C33.6249 0.771 34.8065 2.93722 34.8065 4.51265C34.8065 6.28502 33.8219 8.05738 33.0342 9.82974C30.2772 14.753 27.1264 19.4793 24.3694 24.4025C23.5817 25.781 22.9909 27.1595 22.0063 29.1288C23.3848 28.9319 23.9756 28.9319 24.3694 28.7349C60.6039 13.9653 98.6106 10.2236 137.208 11.799C142.919 11.996 148.63 12.9806 153.947 14.556C160.642 16.7223 167.338 17.313 174.23 16.9192C187.818 16.3284 201.012 18.2977 213.616 24.0086C220.705 27.1595 227.204 31.4919 232.717 37.2029C244.927 50.3971 248.078 65.7576 241.973 82.6935C237.05 96.0847 227.794 106.522 216.373 114.793C194.711 130.547 170.095 137.046 143.313 135.864C141.344 135.864 139.571 135.274 137.799 134.88C135.436 134.486 134.057 133.107 134.254 130.547C134.451 127.987 136.421 127.199 138.587 127.199C139.768 127.199 141.147 127.396 142.328 127.396C163.202 128.578 182.698 123.458 201.012 113.611C211.056 108.097 219.72 100.811 226.613 91.5553C230.945 85.4505 234.293 78.9519 235.278 71.4686C236.853 59.062 232.521 48.6248 223.068 40.7476C211.253 30.5073 197.074 26.9626 180.729 26.1749C181.91 27.9472 182.698 29.1288 183.486 30.1134C184.077 30.9012 184.864 31.6889 185.652 32.4766C196.483 44.8831 198.649 60.0467 191.166 74.6194C189.394 77.9672 187.424 81.315 185.061 84.072C164.581 107.507 138.784 115.581 108.851 109.673C95.4598 106.916 85.8104 98.8417 82.2657 84.8597C79.9026 75.6041 82.0688 66.9392 86.7951 58.8651C91.1274 51.5787 97.0352 45.6708 103.928 40.5507C113.183 33.6582 123.62 28.538 134.451 24.4025C136.224 23.8117 137.799 23.024 139.965 22.2363ZM124.802 103.371C139.374 102.386 154.538 97.6601 165.763 89.783C172.852 84.8597 178.957 78.7549 182.895 70.8778C188.409 59.4559 187.228 48.8217 178.76 39.3691C175.215 35.4305 170.489 32.2797 165.959 29.3257C163.99 28.1441 161.036 27.7503 158.87 27.9472C138.39 31.295 119.682 38.5814 104.125 52.5634C99.9891 56.305 96.4445 61.0313 93.8844 65.7576C86.7951 79.3457 92.1121 93.3277 106.291 98.6448C112.002 101.205 118.5 101.796 124.802 103.371Z" fill="black"/>
</svg>
