<svg width="310" height="172" viewBox="0 0 310 172" fill="none" xmlns="http://www.w3.org/2000/svg">
<path d="M132.901 28.1223C165.044 18.9072 259.231 34.8469 287.139 54.2734C283.65 55.0205 281.159 55.7677 278.418 56.0168C273.434 56.764 268.451 57.2621 263.467 58.2583C259.231 59.2545 257.238 61.7451 258.235 64.7338C259.231 68.4697 261.972 68.7187 265.212 68.4697C277.919 67.2244 290.876 65.73 303.833 63.9866C309.813 63.2394 311.558 59.0055 308.568 53.5262C307.322 51.2847 305.328 49.2922 304.082 47.0507C295.112 32.8544 286.391 18.9072 277.67 4.96001C276.923 3.71472 276.424 2.22038 275.428 1.72226C273.434 0.726031 270.693 -0.519256 269.198 0.227917C267.454 0.975089 265.959 3.71472 265.959 5.70718C265.959 7.9487 267.205 10.1902 268.202 12.4317C271.69 18.6582 275.677 24.6355 279.165 30.862C280.162 32.6054 280.909 34.3488 282.155 36.8394C280.411 36.5903 279.664 36.5903 279.165 36.3412C233.318 17.6619 185.227 12.9298 136.39 14.9223C129.164 15.1714 121.938 16.4166 115.21 18.4091C106.738 21.1487 98.2663 21.8959 89.5453 21.3978C72.3524 20.6506 55.6579 23.1412 39.7108 30.3639C30.7406 34.3488 22.518 39.828 15.5411 47.0507C0.0924683 63.7376 -3.89429 83.164 3.83005 104.583C10.0594 121.519 21.7704 134.719 36.2224 145.179C63.6314 165.104 94.7779 173.323 128.665 171.828C131.157 171.828 133.4 171.081 135.642 170.583C138.632 170.085 140.376 168.342 140.127 165.104C139.878 161.866 137.386 160.87 134.645 160.87C133.15 160.87 131.406 161.119 129.911 161.119C103.499 162.613 78.8309 156.138 55.6579 143.685C42.9501 136.711 31.9865 127.496 23.2655 115.791C17.7837 108.07 13.5478 99.8509 12.3019 90.3867C10.3085 74.6961 15.7903 61.496 27.7506 51.5337C42.7009 38.5828 60.6413 34.0997 81.3226 33.1035C79.8275 35.345 78.8309 36.8394 77.8342 38.0846C77.0867 39.0809 76.09 40.0771 75.0933 41.0733C61.3888 56.764 58.6479 75.9414 68.1165 94.3716C70.359 98.6056 72.8507 102.84 75.8408 106.326C101.755 135.964 134.396 146.176 172.27 138.704C189.214 135.217 201.424 125.006 205.909 107.323C208.899 95.6169 206.158 84.6584 200.178 74.447C194.696 65.2319 187.221 57.7602 178.5 51.2847C166.789 42.5677 153.582 36.0922 139.878 30.862C137.635 30.1148 135.642 29.1186 132.901 28.1223ZM152.087 130.734C133.649 129.489 114.462 123.511 100.26 113.549C91.2895 107.323 83.5651 99.6018 78.5817 89.6395C71.6049 75.1942 73.0999 61.7451 83.8143 49.7903C88.2994 44.8092 94.2795 40.8243 100.01 37.0884C102.502 35.5941 106.24 35.096 108.981 35.345C134.895 39.579 158.566 48.7941 178.251 66.4772C183.483 71.2093 187.968 77.1867 191.207 83.164C200.178 100.349 193.45 118.032 175.51 124.757C168.284 127.994 160.061 128.742 152.087 130.734Z" fill="black"/>
</svg>
